# xmcd CD database file
#
# Track frame offsets:
#	150
#	50407
#	86301
#	142430
#	203341
#	235264
#	273079
#	277284
#
# Disc length: 4753 seconds
#
# Revision: 0
# Processed by: cddbd v1.5.1PL0 Copyright (c) Steve Scherf et al.
# Submitted via: CDex 1.51
#
DISCID=72128f08
DTITLE=Pat Metheny Group - The Way Up to Toronto (2/2)
DYEAR=2005
DGENRE=Jazz
TTITLE0=What Do You Want, 4'18", James
TTITLE1=Lone Jack
TTITLE2=Are You Going With Me
TTITLE3=Last Train Home, Roots of Coincidence
TTITLE4=Always and Forever
TTITLE5=Farmer's Trust
TTITLE6=Banter
TTITLE7=The First Circle, Minuano (Six Eight)
EXTD=YEAR: 2005
EXTT0=
EXTT1=
EXTT2=
EXTT3=
EXTT4=
EXTT5=
EXTT6=
EXTT7=
PLAYORDER=
